<?xml version="1.0" encoding="UTF-8"?>
<svg xmlns="http://www.w3.org/2000/svg" xmlns:xlink="http://www.w3.org/1999/xlink" viewBox="0 0 104 104" width="104px" height="104px">
<g id="surface36904918">
<path style=" stroke:none;fill-rule:nonzero;fill:rgb(100%,100%,100%);fill-opacity:1;" d="M 66.25 63.59375 C 65.609375 63.390625 61.59375 61.578125 64.109375 53.9375 L 64.078125 53.9375 C 70.625 47.203125 75.625 36.34375 75.625 25.65625 C 75.625 9.234375 64.703125 0.625 52 0.625 C 39.296875 0.625 28.4375 9.234375 28.4375 25.65625 C 28.4375 36.390625 33.40625 47.28125 40 54.015625 C 42.5625 60.75 37.96875 63.25 37.015625 63.59375 C 23.71875 68.40625 8.125 77.171875 8.125 85.828125 C 8.125 88.15625 8.125 86.75 8.125 89.078125 C 8.125 100.859375 30.96875 103.546875 52.125 103.546875 C 73.3125 103.546875 95.875 100.859375 95.875 89.078125 C 95.875 86.75 95.875 88.15625 95.875 85.828125 C 95.875 76.921875 80.203125 68.21875 66.25 63.59375 Z M 66.25 63.59375 "/>
</g>
</svg>
